<mxfile host="Electron" modified="2024-07-23T07:30:05.273Z" agent="Mozilla/5.0 (X11; Linux x86_64) AppleWebKit/537.36 (KHTML, like Gecko) draw.io/24.5.3 Chrome/124.0.6367.207 Electron/30.0.6 Safari/537.36" etag="_vU9qwzF_GFekhqPmrq_" version="24.5.3" type="device">
  <diagram name="Page-1" id="bd83a815-5ea8-2e97-e5ec-87c9f400f2fa">
    <mxGraphModel dx="1384" dy="843" grid="1" gridSize="10" guides="1" tooltips="1" connect="1" arrows="1" fold="1" page="1" pageScale="1.5" pageWidth="1169" pageHeight="826" background="none" math="0" shadow="0">
      <root>
        <mxCell id="0" style=";html=1;" />
        <mxCell id="1" style=";html=1;" parent="0" />
        <mxCell id="1516e18e63f93b96-1" value="&lt;table border=&quot;1&quot; width=&quot;100%&quot; cellpadding=&quot;4&quot; style=&quot;width: 100% ; height: 100% ; border-collapse: collapse&quot;&gt;&lt;tbody style=&quot;font-size: 19px;&quot;&gt;&lt;tr style=&quot;background-color: #e6e6e6 ; color: #ffffff ; border: 1px solid #98bf21&quot;&gt;&lt;th style=&quot;&quot;&gt;&lt;span style=&quot;background-color: rgb(255, 255, 255);&quot;&gt;&lt;br&gt;&lt;/span&gt;&lt;/th&gt;&lt;th style=&quot;text-align: center;&quot;&gt;&lt;font style=&quot;&quot; color=&quot;#000000&quot;&gt;1 Environment&lt;/font&gt;&lt;/th&gt;&lt;th style=&quot;text-align: center;&quot;&gt;&lt;font style=&quot;&quot; color=&quot;#000000&quot;&gt;10 Environments&lt;/font&gt;&lt;/th&gt;&lt;th style=&quot;text-align: center;&quot;&gt;&lt;font style=&quot;&quot; color=&quot;#000000&quot;&gt;100 Environments&lt;/font&gt;&lt;/th&gt;&lt;/tr&gt;&lt;tr style=&quot;border: 1px solid #98bf21&quot;&gt;&lt;td style=&quot;text-align: center; border: 1px solid rgb(152, 191, 33); font-size: 19px;&quot;&gt;&lt;b style=&quot;background-color: rgb(255, 255, 255);&quot;&gt;Not Scalable&lt;/b&gt;&lt;/td&gt;&lt;td style=&quot;&quot;&gt;&lt;/td&gt;&lt;td style=&quot;&quot;&gt;&lt;/td&gt;&lt;td style=&quot;&quot;&gt;&lt;span style=&quot;background-color: rgb(255, 255, 255);&quot;&gt;&lt;br&gt;&lt;/span&gt;&lt;/td&gt;&lt;/tr&gt;&lt;tr style=&quot;border: 1px solid rgb(152, 191, 33);&quot;&gt;&lt;td style=&quot;text-align: center; border: 1px solid rgb(152, 191, 33); font-size: 19px;&quot;&gt;&lt;b style=&quot;background-color: rgb(255, 255, 255);&quot;&gt;Scalable&lt;/b&gt;&lt;/td&gt;&lt;td&gt;&lt;/td&gt;&lt;td&gt;&lt;/td&gt;&lt;td&gt;&lt;span style=&quot;background-color: rgb(255, 255, 255);&quot;&gt;&lt;br&gt;&lt;/span&gt;&lt;/td&gt;&lt;/tr&gt;&lt;/tbody&gt;&lt;/table&gt;" style="text;html=1;strokeColor=#e6e6e6;fillColor=#ffffff;overflow=fill;rounded=0;shadow=1;fontSize=14;fontColor=#000000;fillStyle=auto;gradientColor=none;glass=0;" parent="1" vertex="1">
          <mxGeometry x="170" y="270" width="930" height="320" as="geometry" />
        </mxCell>
        <mxCell id="V9JGxVGzX_ccKxI2M0wD-1" value="" style="editableCssRules=.*;html=1;shape=image;verticalLabelPosition=bottom;labelBackgroundColor=#ffffff;verticalAlign=top;aspect=fixed;imageAspect=0;image=data:image/svg+xml,PHN2ZyB4bWxucz0iaHR0cDovL3d3dy53My5vcmcvMjAwMC9zdmciIHhtbG5zOnY9Imh0dHBzOi8vdmVjdGEuaW8vbmFubyIgd2lkdGg9IjE4IiBoZWlnaHQ9IjE4IiB2aWV3Qm94PSIwIDAgMTggMTgiPiYjeGE7CTxzdHlsZSB0eXBlPSJ0ZXh0L2NzcyI+JiN4YTsJLnN0MHtmaWxsOiM0Mjg1ZjQ7fSYjeGE7CS5zdDF7ZmlsbDojNjY5ZGY2O30mI3hhOwk8L3N0eWxlPiYjeGE7CTxnIGNsYXNzPSJzdDAiIGZpbGw9IiM0Mjg1ZjQiPiYjeGE7CQk8cGF0aCBkPSJNMy40OCA2LjYyYS4zNy4zNyAwIDAgMS0uMzU4LS41MzMuMzcuMzcgMCAwIDEgLjMwOC0uMjA3bDIuMy0uMzJhLjM3LjM3IDAgMCAxIC40Mi4zMi4zOC4zOCAwIDAgMS0uMzIuNDNsLTIuMy4zMXoiLz4mI3hhOwkJPHBhdGggZD0iTTYuMjk5IDYuMjkybC4yMzMtLjcxMyA0LjE0NSAxLjM1Mi0uMjMzLjcxM3oiLz4mI3hhOwkJPHBhdGggZD0iTTYuMTggNi4xNmgtLjExYS4zNy4zNyAwIDAgMS0uMjQtLjQ2bC44My0yLjg0YS4zNy4zNyAwIDAgMSAuNDYtLjI0LjM2LjM2IDAgMCAxIC4yNi40NWwtLjg0IDIuODFhLjM4LjM4IDAgMCAxLS4zNi4yOHptNS4xMyAxLjRBLjM2LjM2IDAgMCAxIDExIDdsMS42Ny00LjIzYS4zOC4zOCAwIDAgMSAuNDctLjE4LjM4LjM4IDAgMCAxIC4yMy40NWwtMS42OCA0LjI0YS4zOS4zOSAwIDAgMS0uMzguMjh6Ii8+JiN4YTsJCTxwYXRoIGQ9Ik0yLjY2OSAxMy42MDRMNi42IDEwLjQ2NWwuNDY4LjU4Ni0zLjkzMSAzLjEzOXpNMTUuMDUgOC42MWwtLjMuNjgtMy42My0xLjU4LjI5LS42OXptLS4zMSA1LjQ4bC0uNTIuNTQtMy4yMy0zLjA0LjUyLS41NXpNNS43ODggNi4xMTNsLjczNS0uMTQ5LjgwOCAzLjk3OS0uNzM1LjE0OXoiLz4mI3hhOwkJPHBhdGggZD0iTTExLjU2IDcuNTZsLTQuMSAzLjYtLjUtLjU2IDQuMS0zLjZ6Ii8+JiN4YTsJCTxwYXRoIGQ9Ik0xMS43NCA3LjNsLS4yNSAzLjk3LS43NC0uMDUuMjQtMy45N3oiLz4mI3hhOwkJPGNpcmNsZSBjeD0iNy4wMSIgY3k9IjEwLjgyIiByPSIxLjM2Ii8+JiN4YTsJCTxjaXJjbGUgY3g9IjExLjM3IiBjeT0iNy4zNiIgcj0iMS42MSIvPiYjeGE7CQk8Y2lyY2xlIGN4PSIxMS4zNiIgY3k9IjExLjU0IiByPSIuODQiLz4mI3hhOwkJPGNpcmNsZSBjeD0iNi4wNCIgY3k9IjUuNjciIHI9Ii45OSIvPiYjeGE7CTwvZz4mI3hhOwk8ZyBjbGFzcz0ic3QxIiBmaWxsPSIjNjY5ZGY2Ij4mI3hhOwkJPHBhdGggZD0iTTggNGgyVjBIOHptNCAwaDJWMGgtMnpNNCA0aDJWMEg0em00IDE0aDJ2LTRIOHoiLz4mI3hhOwkJPHBhdGggZD0iTTEyIDE4aDJ2LTRoLTJ6bS04IDBoMnYtNEg0em0tNC04aDRWOEgwem0wLTRoNFY0SDB6Ii8+JiN4YTsJCTxwYXRoIGQ9Ik0wIDE0aDR2LTJIMHptMTQtNGg0VjhoLTR6bTAtNGg0VjRoLTR6bTAgOGg0di0yaC00eiIvPiYjeGE7CQk8cGF0aCBkPSJNMTUgMkgzYTEgMSAwIDAgMC0xIDF2MTJhMSAxIDAgMCAwIDEgMWgxMmExIDEgMCAwIDAgMS0xVjNhMSAxIDAgMCAwLTEtMXptLTEgMTEuNDdhLjUzLjUzIDAgMCAxLS41My41M0g0LjUzYS41My41MyAwIDAgMS0uNTMtLjUzVjQuNTNBLjUzLjUzIDAgMCAxIDQuNTMgNGg4Ljk0YS41My41MyAwIDAgMSAuNTMuNTN6Ii8+JiN4YTsJPC9nPiYjeGE7PC9zdmc+;" parent="1" vertex="1">
          <mxGeometry x="398.13" y="385" width="40" height="40" as="geometry" />
        </mxCell>
        <mxCell id="V9JGxVGzX_ccKxI2M0wD-2" value="" style="verticalLabelPosition=bottom;html=1;verticalAlign=top;align=center;strokeColor=none;fillColor=#00BEF2;shape=mxgraph.azure.user;" parent="1" vertex="1">
          <mxGeometry x="398.13" y="435" width="43.75" height="40" as="geometry" />
        </mxCell>
        <mxCell id="V9JGxVGzX_ccKxI2M0wD-3" value="Model + Policy" style="text;html=1;align=center;verticalAlign=middle;whiteSpace=wrap;rounded=0;strokeColor=default;" parent="1" vertex="1">
          <mxGeometry x="468.13" y="390" width="80" height="30" as="geometry" />
        </mxCell>
        <mxCell id="V9JGxVGzX_ccKxI2M0wD-4" value="" style="endArrow=none;html=1;rounded=0;entryX=1;entryY=0.5;entryDx=0;entryDy=0;exitX=0;exitY=0.5;exitDx=0;exitDy=0;" parent="1" source="V9JGxVGzX_ccKxI2M0wD-3" target="V9JGxVGzX_ccKxI2M0wD-1" edge="1">
          <mxGeometry width="50" height="50" relative="1" as="geometry">
            <mxPoint x="678.13" y="515" as="sourcePoint" />
            <mxPoint x="728.13" y="465" as="targetPoint" />
          </mxGeometry>
        </mxCell>
        <mxCell id="V9JGxVGzX_ccKxI2M0wD-5" value="Engineer" style="text;html=1;align=center;verticalAlign=middle;whiteSpace=wrap;rounded=0;strokeColor=default;" parent="1" vertex="1">
          <mxGeometry x="469" y="446" width="80" height="30" as="geometry" />
        </mxCell>
        <mxCell id="V9JGxVGzX_ccKxI2M0wD-6" value="" style="endArrow=none;html=1;rounded=0;entryX=0.911;entryY=0.475;entryDx=0;entryDy=0;exitX=0;exitY=0.25;exitDx=0;exitDy=0;entryPerimeter=0;" parent="1" source="V9JGxVGzX_ccKxI2M0wD-5" target="V9JGxVGzX_ccKxI2M0wD-2" edge="1">
          <mxGeometry width="50" height="50" relative="1" as="geometry">
            <mxPoint x="470" y="475" as="sourcePoint" />
            <mxPoint x="436.1925000000001" y="475" as="targetPoint" />
          </mxGeometry>
        </mxCell>
        <mxCell id="V9JGxVGzX_ccKxI2M0wD-7" value="" style="editableCssRules=.*;html=1;shape=image;verticalLabelPosition=bottom;labelBackgroundColor=#ffffff;verticalAlign=top;aspect=fixed;imageAspect=0;image=data:image/svg+xml,PHN2ZyB4bWxucz0iaHR0cDovL3d3dy53My5vcmcvMjAwMC9zdmciIHhtbG5zOnY9Imh0dHBzOi8vdmVjdGEuaW8vbmFubyIgd2lkdGg9IjE4IiBoZWlnaHQ9IjE4IiB2aWV3Qm94PSIwIDAgMTggMTgiPiYjeGE7CTxzdHlsZSB0eXBlPSJ0ZXh0L2NzcyI+JiN4YTsJLnN0MHtmaWxsOiM0Mjg1ZjQ7fSYjeGE7CS5zdDF7ZmlsbDojNjY5ZGY2O30mI3hhOwk8L3N0eWxlPiYjeGE7CTxnIGNsYXNzPSJzdDAiIGZpbGw9IiM0Mjg1ZjQiPiYjeGE7CQk8cGF0aCBkPSJNMy40OCA2LjYyYS4zNy4zNyAwIDAgMS0uMzU4LS41MzMuMzcuMzcgMCAwIDEgLjMwOC0uMjA3bDIuMy0uMzJhLjM3LjM3IDAgMCAxIC40Mi4zMi4zOC4zOCAwIDAgMS0uMzIuNDNsLTIuMy4zMXoiLz4mI3hhOwkJPHBhdGggZD0iTTYuMjk5IDYuMjkybC4yMzMtLjcxMyA0LjE0NSAxLjM1Mi0uMjMzLjcxM3oiLz4mI3hhOwkJPHBhdGggZD0iTTYuMTggNi4xNmgtLjExYS4zNy4zNyAwIDAgMS0uMjQtLjQ2bC44My0yLjg0YS4zNy4zNyAwIDAgMSAuNDYtLjI0LjM2LjM2IDAgMCAxIC4yNi40NWwtLjg0IDIuODFhLjM4LjM4IDAgMCAxLS4zNi4yOHptNS4xMyAxLjRBLjM2LjM2IDAgMCAxIDExIDdsMS42Ny00LjIzYS4zOC4zOCAwIDAgMSAuNDctLjE4LjM4LjM4IDAgMCAxIC4yMy40NWwtMS42OCA0LjI0YS4zOS4zOSAwIDAgMS0uMzguMjh6Ii8+JiN4YTsJCTxwYXRoIGQ9Ik0yLjY2OSAxMy42MDRMNi42IDEwLjQ2NWwuNDY4LjU4Ni0zLjkzMSAzLjEzOXpNMTUuMDUgOC42MWwtLjMuNjgtMy42My0xLjU4LjI5LS42OXptLS4zMSA1LjQ4bC0uNTIuNTQtMy4yMy0zLjA0LjUyLS41NXpNNS43ODggNi4xMTNsLjczNS0uMTQ5LjgwOCAzLjk3OS0uNzM1LjE0OXoiLz4mI3hhOwkJPHBhdGggZD0iTTExLjU2IDcuNTZsLTQuMSAzLjYtLjUtLjU2IDQuMS0zLjZ6Ii8+JiN4YTsJCTxwYXRoIGQ9Ik0xMS43NCA3LjNsLS4yNSAzLjk3LS43NC0uMDUuMjQtMy45N3oiLz4mI3hhOwkJPGNpcmNsZSBjeD0iNy4wMSIgY3k9IjEwLjgyIiByPSIxLjM2Ii8+JiN4YTsJCTxjaXJjbGUgY3g9IjExLjM3IiBjeT0iNy4zNiIgcj0iMS42MSIvPiYjeGE7CQk8Y2lyY2xlIGN4PSIxMS4zNiIgY3k9IjExLjU0IiByPSIuODQiLz4mI3hhOwkJPGNpcmNsZSBjeD0iNi4wNCIgY3k9IjUuNjciIHI9Ii45OSIvPiYjeGE7CTwvZz4mI3hhOwk8ZyBjbGFzcz0ic3QxIiBmaWxsPSIjNjY5ZGY2Ij4mI3hhOwkJPHBhdGggZD0iTTggNGgyVjBIOHptNCAwaDJWMGgtMnpNNCA0aDJWMEg0em00IDE0aDJ2LTRIOHoiLz4mI3hhOwkJPHBhdGggZD0iTTEyIDE4aDJ2LTRoLTJ6bS04IDBoMnYtNEg0em0tNC04aDRWOEgwem0wLTRoNFY0SDB6Ii8+JiN4YTsJCTxwYXRoIGQ9Ik0wIDE0aDR2LTJIMHptMTQtNGg0VjhoLTR6bTAtNGg0VjRoLTR6bTAgOGg0di0yaC00eiIvPiYjeGE7CQk8cGF0aCBkPSJNMTUgMkgzYTEgMSAwIDAgMC0xIDF2MTJhMSAxIDAgMCAwIDEgMWgxMmExIDEgMCAwIDAgMS0xVjNhMSAxIDAgMCAwLTEtMXptLTEgMTEuNDdhLjUzLjUzIDAgMCAxLS41My41M0g0LjUzYS41My41MyAwIDAgMS0uNTMtLjUzVjQuNTNBLjUzLjUzIDAgMCAxIDQuNTMgNGg4Ljk0YS41My41MyAwIDAgMSAuNTMuNTN6Ii8+JiN4YTsJPC9nPiYjeGE7PC9zdmc+;" parent="1" vertex="1">
          <mxGeometry x="648.13" y="385" width="40" height="40" as="geometry" />
        </mxCell>
        <mxCell id="V9JGxVGzX_ccKxI2M0wD-8" value="x 10" style="text;html=1;align=center;verticalAlign=middle;whiteSpace=wrap;rounded=0;strokeColor=none;fontSize=16;" parent="1" vertex="1">
          <mxGeometry x="698.13" y="390" width="80" height="30" as="geometry" />
        </mxCell>
        <mxCell id="V9JGxVGzX_ccKxI2M0wD-10" value="" style="verticalLabelPosition=bottom;html=1;verticalAlign=top;align=center;strokeColor=none;fillColor=#00BEF2;shape=mxgraph.azure.user;" parent="1" vertex="1">
          <mxGeometry x="646.25" y="435" width="43.75" height="40" as="geometry" />
        </mxCell>
        <mxCell id="V9JGxVGzX_ccKxI2M0wD-11" value="x 10" style="text;html=1;align=center;verticalAlign=middle;whiteSpace=wrap;rounded=0;strokeColor=none;fontSize=16;" parent="1" vertex="1">
          <mxGeometry x="700" y="445" width="80" height="30" as="geometry" />
        </mxCell>
        <mxCell id="V9JGxVGzX_ccKxI2M0wD-12" value="" style="editableCssRules=.*;html=1;shape=image;verticalLabelPosition=bottom;labelBackgroundColor=#ffffff;verticalAlign=top;aspect=fixed;imageAspect=0;image=data:image/svg+xml,PHN2ZyB4bWxucz0iaHR0cDovL3d3dy53My5vcmcvMjAwMC9zdmciIHhtbG5zOnY9Imh0dHBzOi8vdmVjdGEuaW8vbmFubyIgd2lkdGg9IjE4IiBoZWlnaHQ9IjE4IiB2aWV3Qm94PSIwIDAgMTggMTgiPiYjeGE7CTxzdHlsZSB0eXBlPSJ0ZXh0L2NzcyI+JiN4YTsJLnN0MHtmaWxsOiM0Mjg1ZjQ7fSYjeGE7CS5zdDF7ZmlsbDojNjY5ZGY2O30mI3hhOwk8L3N0eWxlPiYjeGE7CTxnIGNsYXNzPSJzdDAiIGZpbGw9IiM0Mjg1ZjQiPiYjeGE7CQk8cGF0aCBkPSJNMy40OCA2LjYyYS4zNy4zNyAwIDAgMS0uMzU4LS41MzMuMzcuMzcgMCAwIDEgLjMwOC0uMjA3bDIuMy0uMzJhLjM3LjM3IDAgMCAxIC40Mi4zMi4zOC4zOCAwIDAgMS0uMzIuNDNsLTIuMy4zMXoiLz4mI3hhOwkJPHBhdGggZD0iTTYuMjk5IDYuMjkybC4yMzMtLjcxMyA0LjE0NSAxLjM1Mi0uMjMzLjcxM3oiLz4mI3hhOwkJPHBhdGggZD0iTTYuMTggNi4xNmgtLjExYS4zNy4zNyAwIDAgMS0uMjQtLjQ2bC44My0yLjg0YS4zNy4zNyAwIDAgMSAuNDYtLjI0LjM2LjM2IDAgMCAxIC4yNi40NWwtLjg0IDIuODFhLjM4LjM4IDAgMCAxLS4zNi4yOHptNS4xMyAxLjRBLjM2LjM2IDAgMCAxIDExIDdsMS42Ny00LjIzYS4zOC4zOCAwIDAgMSAuNDctLjE4LjM4LjM4IDAgMCAxIC4yMy40NWwtMS42OCA0LjI0YS4zOS4zOSAwIDAgMS0uMzguMjh6Ii8+JiN4YTsJCTxwYXRoIGQ9Ik0yLjY2OSAxMy42MDRMNi42IDEwLjQ2NWwuNDY4LjU4Ni0zLjkzMSAzLjEzOXpNMTUuMDUgOC42MWwtLjMuNjgtMy42My0xLjU4LjI5LS42OXptLS4zMSA1LjQ4bC0uNTIuNTQtMy4yMy0zLjA0LjUyLS41NXpNNS43ODggNi4xMTNsLjczNS0uMTQ5LjgwOCAzLjk3OS0uNzM1LjE0OXoiLz4mI3hhOwkJPHBhdGggZD0iTTExLjU2IDcuNTZsLTQuMSAzLjYtLjUtLjU2IDQuMS0zLjZ6Ii8+JiN4YTsJCTxwYXRoIGQ9Ik0xMS43NCA3LjNsLS4yNSAzLjk3LS43NC0uMDUuMjQtMy45N3oiLz4mI3hhOwkJPGNpcmNsZSBjeD0iNy4wMSIgY3k9IjEwLjgyIiByPSIxLjM2Ii8+JiN4YTsJCTxjaXJjbGUgY3g9IjExLjM3IiBjeT0iNy4zNiIgcj0iMS42MSIvPiYjeGE7CQk8Y2lyY2xlIGN4PSIxMS4zNiIgY3k9IjExLjU0IiByPSIuODQiLz4mI3hhOwkJPGNpcmNsZSBjeD0iNi4wNCIgY3k9IjUuNjciIHI9Ii45OSIvPiYjeGE7CTwvZz4mI3hhOwk8ZyBjbGFzcz0ic3QxIiBmaWxsPSIjNjY5ZGY2Ij4mI3hhOwkJPHBhdGggZD0iTTggNGgyVjBIOHptNCAwaDJWMGgtMnpNNCA0aDJWMEg0em00IDE0aDJ2LTRIOHoiLz4mI3hhOwkJPHBhdGggZD0iTTEyIDE4aDJ2LTRoLTJ6bS04IDBoMnYtNEg0em0tNC04aDRWOEgwem0wLTRoNFY0SDB6Ii8+JiN4YTsJCTxwYXRoIGQ9Ik0wIDE0aDR2LTJIMHptMTQtNGg0VjhoLTR6bTAtNGg0VjRoLTR6bTAgOGg0di0yaC00eiIvPiYjeGE7CQk8cGF0aCBkPSJNMTUgMkgzYTEgMSAwIDAgMC0xIDF2MTJhMSAxIDAgMCAwIDEgMWgxMmExIDEgMCAwIDAgMS0xVjNhMSAxIDAgMCAwLTEtMXptLTEgMTEuNDdhLjUzLjUzIDAgMCAxLS41My41M0g0LjUzYS41My41MyAwIDAgMS0uNTMtLjUzVjQuNTNBLjUzLjUzIDAgMCAxIDQuNTMgNGg4Ljk0YS41My41MyAwIDAgMSAuNTMuNTN6Ii8+JiN4YTsJPC9nPiYjeGE7PC9zdmc+;" parent="1" vertex="1">
          <mxGeometry x="913.75" y="385" width="40" height="40" as="geometry" />
        </mxCell>
        <mxCell id="V9JGxVGzX_ccKxI2M0wD-13" value="x 100" style="text;html=1;align=center;verticalAlign=middle;whiteSpace=wrap;rounded=0;strokeColor=none;fontSize=16;" parent="1" vertex="1">
          <mxGeometry x="961.88" y="395" width="80" height="30" as="geometry" />
        </mxCell>
        <mxCell id="V9JGxVGzX_ccKxI2M0wD-14" value="" style="verticalLabelPosition=bottom;html=1;verticalAlign=top;align=center;strokeColor=none;fillColor=#00BEF2;shape=mxgraph.azure.user;" parent="1" vertex="1">
          <mxGeometry x="910" y="435" width="43.75" height="40" as="geometry" />
        </mxCell>
        <mxCell id="V9JGxVGzX_ccKxI2M0wD-15" value="x 100" style="text;html=1;align=center;verticalAlign=middle;whiteSpace=wrap;rounded=0;strokeColor=none;fontSize=16;" parent="1" vertex="1">
          <mxGeometry x="961.88" y="447" width="80" height="30" as="geometry" />
        </mxCell>
        <mxCell id="V9JGxVGzX_ccKxI2M0wD-16" value="" style="editableCssRules=.*;html=1;shape=image;verticalLabelPosition=bottom;labelBackgroundColor=#ffffff;verticalAlign=top;aspect=fixed;imageAspect=0;image=data:image/svg+xml,PHN2ZyB4bWxucz0iaHR0cDovL3d3dy53My5vcmcvMjAwMC9zdmciIHhtbG5zOnY9Imh0dHBzOi8vdmVjdGEuaW8vbmFubyIgd2lkdGg9IjE4IiBoZWlnaHQ9IjE4IiB2aWV3Qm94PSIwIDAgMTggMTgiPiYjeGE7CTxzdHlsZSB0eXBlPSJ0ZXh0L2NzcyI+JiN4YTsJLnN0MHtmaWxsOiM0Mjg1ZjQ7fSYjeGE7CS5zdDF7ZmlsbDojNjY5ZGY2O30mI3hhOwk8L3N0eWxlPiYjeGE7CTxnIGNsYXNzPSJzdDAiIGZpbGw9IiM0Mjg1ZjQiPiYjeGE7CQk8cGF0aCBkPSJNMy40OCA2LjYyYS4zNy4zNyAwIDAgMS0uMzU4LS41MzMuMzcuMzcgMCAwIDEgLjMwOC0uMjA3bDIuMy0uMzJhLjM3LjM3IDAgMCAxIC40Mi4zMi4zOC4zOCAwIDAgMS0uMzIuNDNsLTIuMy4zMXoiLz4mI3hhOwkJPHBhdGggZD0iTTYuMjk5IDYuMjkybC4yMzMtLjcxMyA0LjE0NSAxLjM1Mi0uMjMzLjcxM3oiLz4mI3hhOwkJPHBhdGggZD0iTTYuMTggNi4xNmgtLjExYS4zNy4zNyAwIDAgMS0uMjQtLjQ2bC44My0yLjg0YS4zNy4zNyAwIDAgMSAuNDYtLjI0LjM2LjM2IDAgMCAxIC4yNi40NWwtLjg0IDIuODFhLjM4LjM4IDAgMCAxLS4zNi4yOHptNS4xMyAxLjRBLjM2LjM2IDAgMCAxIDExIDdsMS42Ny00LjIzYS4zOC4zOCAwIDAgMSAuNDctLjE4LjM4LjM4IDAgMCAxIC4yMy40NWwtMS42OCA0LjI0YS4zOS4zOSAwIDAgMS0uMzguMjh6Ii8+JiN4YTsJCTxwYXRoIGQ9Ik0yLjY2OSAxMy42MDRMNi42IDEwLjQ2NWwuNDY4LjU4Ni0zLjkzMSAzLjEzOXpNMTUuMDUgOC42MWwtLjMuNjgtMy42My0xLjU4LjI5LS42OXptLS4zMSA1LjQ4bC0uNTIuNTQtMy4yMy0zLjA0LjUyLS41NXpNNS43ODggNi4xMTNsLjczNS0uMTQ5LjgwOCAzLjk3OS0uNzM1LjE0OXoiLz4mI3hhOwkJPHBhdGggZD0iTTExLjU2IDcuNTZsLTQuMSAzLjYtLjUtLjU2IDQuMS0zLjZ6Ii8+JiN4YTsJCTxwYXRoIGQ9Ik0xMS43NCA3LjNsLS4yNSAzLjk3LS43NC0uMDUuMjQtMy45N3oiLz4mI3hhOwkJPGNpcmNsZSBjeD0iNy4wMSIgY3k9IjEwLjgyIiByPSIxLjM2Ii8+JiN4YTsJCTxjaXJjbGUgY3g9IjExLjM3IiBjeT0iNy4zNiIgcj0iMS42MSIvPiYjeGE7CQk8Y2lyY2xlIGN4PSIxMS4zNiIgY3k9IjExLjU0IiByPSIuODQiLz4mI3hhOwkJPGNpcmNsZSBjeD0iNi4wNCIgY3k9IjUuNjciIHI9Ii45OSIvPiYjeGE7CTwvZz4mI3hhOwk8ZyBjbGFzcz0ic3QxIiBmaWxsPSIjNjY5ZGY2Ij4mI3hhOwkJPHBhdGggZD0iTTggNGgyVjBIOHptNCAwaDJWMGgtMnpNNCA0aDJWMEg0em00IDE0aDJ2LTRIOHoiLz4mI3hhOwkJPHBhdGggZD0iTTEyIDE4aDJ2LTRoLTJ6bS04IDBoMnYtNEg0em0tNC04aDRWOEgwem0wLTRoNFY0SDB6Ii8+JiN4YTsJCTxwYXRoIGQ9Ik0wIDE0aDR2LTJIMHptMTQtNGg0VjhoLTR6bTAtNGg0VjRoLTR6bTAgOGg0di0yaC00eiIvPiYjeGE7CQk8cGF0aCBkPSJNMTUgMkgzYTEgMSAwIDAgMC0xIDF2MTJhMSAxIDAgMCAwIDEgMWgxMmExIDEgMCAwIDAgMS0xVjNhMSAxIDAgMCAwLTEtMXptLTEgMTEuNDdhLjUzLjUzIDAgMCAxLS41My41M0g0LjUzYS41My41MyAwIDAgMS0uNTMtLjUzVjQuNTNBLjUzLjUzIDAgMCAxIDQuNTMgNGg4Ljk0YS41My41MyAwIDAgMSAuNTMuNTN6Ii8+JiN4YTsJPC9nPiYjeGE7PC9zdmc+;" parent="1" vertex="1">
          <mxGeometry x="401.87" y="494" width="40" height="40" as="geometry" />
        </mxCell>
        <mxCell id="V9JGxVGzX_ccKxI2M0wD-17" value="" style="verticalLabelPosition=bottom;html=1;verticalAlign=top;align=center;strokeColor=none;fillColor=#00BEF2;shape=mxgraph.azure.user;" parent="1" vertex="1">
          <mxGeometry x="400" y="540" width="43.75" height="40" as="geometry" />
        </mxCell>
        <mxCell id="V9JGxVGzX_ccKxI2M0wD-18" value="" style="editableCssRules=.*;html=1;shape=image;verticalLabelPosition=bottom;labelBackgroundColor=#ffffff;verticalAlign=top;aspect=fixed;imageAspect=0;image=data:image/svg+xml,PHN2ZyB4bWxucz0iaHR0cDovL3d3dy53My5vcmcvMjAwMC9zdmciIHhtbG5zOnY9Imh0dHBzOi8vdmVjdGEuaW8vbmFubyIgd2lkdGg9IjE4IiBoZWlnaHQ9IjE4IiB2aWV3Qm94PSIwIDAgMTggMTgiPiYjeGE7CTxzdHlsZSB0eXBlPSJ0ZXh0L2NzcyI+JiN4YTsJLnN0MHtmaWxsOiM0Mjg1ZjQ7fSYjeGE7CS5zdDF7ZmlsbDojNjY5ZGY2O30mI3hhOwk8L3N0eWxlPiYjeGE7CTxnIGNsYXNzPSJzdDAiIGZpbGw9IiM0Mjg1ZjQiPiYjeGE7CQk8cGF0aCBkPSJNMy40OCA2LjYyYS4zNy4zNyAwIDAgMS0uMzU4LS41MzMuMzcuMzcgMCAwIDEgLjMwOC0uMjA3bDIuMy0uMzJhLjM3LjM3IDAgMCAxIC40Mi4zMi4zOC4zOCAwIDAgMS0uMzIuNDNsLTIuMy4zMXoiLz4mI3hhOwkJPHBhdGggZD0iTTYuMjk5IDYuMjkybC4yMzMtLjcxMyA0LjE0NSAxLjM1Mi0uMjMzLjcxM3oiLz4mI3hhOwkJPHBhdGggZD0iTTYuMTggNi4xNmgtLjExYS4zNy4zNyAwIDAgMS0uMjQtLjQ2bC44My0yLjg0YS4zNy4zNyAwIDAgMSAuNDYtLjI0LjM2LjM2IDAgMCAxIC4yNi40NWwtLjg0IDIuODFhLjM4LjM4IDAgMCAxLS4zNi4yOHptNS4xMyAxLjRBLjM2LjM2IDAgMCAxIDExIDdsMS42Ny00LjIzYS4zOC4zOCAwIDAgMSAuNDctLjE4LjM4LjM4IDAgMCAxIC4yMy40NWwtMS42OCA0LjI0YS4zOS4zOSAwIDAgMS0uMzguMjh6Ii8+JiN4YTsJCTxwYXRoIGQ9Ik0yLjY2OSAxMy42MDRMNi42IDEwLjQ2NWwuNDY4LjU4Ni0zLjkzMSAzLjEzOXpNMTUuMDUgOC42MWwtLjMuNjgtMy42My0xLjU4LjI5LS42OXptLS4zMSA1LjQ4bC0uNTIuNTQtMy4yMy0zLjA0LjUyLS41NXpNNS43ODggNi4xMTNsLjczNS0uMTQ5LjgwOCAzLjk3OS0uNzM1LjE0OXoiLz4mI3hhOwkJPHBhdGggZD0iTTExLjU2IDcuNTZsLTQuMSAzLjYtLjUtLjU2IDQuMS0zLjZ6Ii8+JiN4YTsJCTxwYXRoIGQ9Ik0xMS43NCA3LjNsLS4yNSAzLjk3LS43NC0uMDUuMjQtMy45N3oiLz4mI3hhOwkJPGNpcmNsZSBjeD0iNy4wMSIgY3k9IjEwLjgyIiByPSIxLjM2Ii8+JiN4YTsJCTxjaXJjbGUgY3g9IjExLjM3IiBjeT0iNy4zNiIgcj0iMS42MSIvPiYjeGE7CQk8Y2lyY2xlIGN4PSIxMS4zNiIgY3k9IjExLjU0IiByPSIuODQiLz4mI3hhOwkJPGNpcmNsZSBjeD0iNi4wNCIgY3k9IjUuNjciIHI9Ii45OSIvPiYjeGE7CTwvZz4mI3hhOwk8ZyBjbGFzcz0ic3QxIiBmaWxsPSIjNjY5ZGY2Ij4mI3hhOwkJPHBhdGggZD0iTTggNGgyVjBIOHptNCAwaDJWMGgtMnpNNCA0aDJWMEg0em00IDE0aDJ2LTRIOHoiLz4mI3hhOwkJPHBhdGggZD0iTTEyIDE4aDJ2LTRoLTJ6bS04IDBoMnYtNEg0em0tNC04aDRWOEgwem0wLTRoNFY0SDB6Ii8+JiN4YTsJCTxwYXRoIGQ9Ik0wIDE0aDR2LTJIMHptMTQtNGg0VjhoLTR6bTAtNGg0VjRoLTR6bTAgOGg0di0yaC00eiIvPiYjeGE7CQk8cGF0aCBkPSJNMTUgMkgzYTEgMSAwIDAgMC0xIDF2MTJhMSAxIDAgMCAwIDEgMWgxMmExIDEgMCAwIDAgMS0xVjNhMSAxIDAgMCAwLTEtMXptLTEgMTEuNDdhLjUzLjUzIDAgMCAxLS41My41M0g0LjUzYS41My41MyAwIDAgMS0uNTMtLjUzVjQuNTNBLjUzLjUzIDAgMCAxIDQuNTMgNGg4Ljk0YS41My41MyAwIDAgMSAuNTMuNTN6Ii8+JiN4YTsJPC9nPiYjeGE7PC9zdmc+;" parent="1" vertex="1">
          <mxGeometry x="648.12" y="494" width="40" height="40" as="geometry" />
        </mxCell>
        <mxCell id="V9JGxVGzX_ccKxI2M0wD-19" value="" style="verticalLabelPosition=bottom;html=1;verticalAlign=top;align=center;strokeColor=none;fillColor=#00BEF2;shape=mxgraph.azure.user;" parent="1" vertex="1">
          <mxGeometry x="646.25" y="540" width="43.75" height="40" as="geometry" />
        </mxCell>
        <mxCell id="V9JGxVGzX_ccKxI2M0wD-20" value="" style="editableCssRules=.*;html=1;shape=image;verticalLabelPosition=bottom;labelBackgroundColor=#ffffff;verticalAlign=top;aspect=fixed;imageAspect=0;image=data:image/svg+xml,PHN2ZyB4bWxucz0iaHR0cDovL3d3dy53My5vcmcvMjAwMC9zdmciIHhtbG5zOnY9Imh0dHBzOi8vdmVjdGEuaW8vbmFubyIgd2lkdGg9IjE4IiBoZWlnaHQ9IjE4IiB2aWV3Qm94PSIwIDAgMTggMTgiPiYjeGE7CTxzdHlsZSB0eXBlPSJ0ZXh0L2NzcyI+JiN4YTsJLnN0MHtmaWxsOiM0Mjg1ZjQ7fSYjeGE7CS5zdDF7ZmlsbDojNjY5ZGY2O30mI3hhOwk8L3N0eWxlPiYjeGE7CTxnIGNsYXNzPSJzdDAiIGZpbGw9IiM0Mjg1ZjQiPiYjeGE7CQk8cGF0aCBkPSJNMy40OCA2LjYyYS4zNy4zNyAwIDAgMS0uMzU4LS41MzMuMzcuMzcgMCAwIDEgLjMwOC0uMjA3bDIuMy0uMzJhLjM3LjM3IDAgMCAxIC40Mi4zMi4zOC4zOCAwIDAgMS0uMzIuNDNsLTIuMy4zMXoiLz4mI3hhOwkJPHBhdGggZD0iTTYuMjk5IDYuMjkybC4yMzMtLjcxMyA0LjE0NSAxLjM1Mi0uMjMzLjcxM3oiLz4mI3hhOwkJPHBhdGggZD0iTTYuMTggNi4xNmgtLjExYS4zNy4zNyAwIDAgMS0uMjQtLjQ2bC44My0yLjg0YS4zNy4zNyAwIDAgMSAuNDYtLjI0LjM2LjM2IDAgMCAxIC4yNi40NWwtLjg0IDIuODFhLjM4LjM4IDAgMCAxLS4zNi4yOHptNS4xMyAxLjRBLjM2LjM2IDAgMCAxIDExIDdsMS42Ny00LjIzYS4zOC4zOCAwIDAgMSAuNDctLjE4LjM4LjM4IDAgMCAxIC4yMy40NWwtMS42OCA0LjI0YS4zOS4zOSAwIDAgMS0uMzguMjh6Ii8+JiN4YTsJCTxwYXRoIGQ9Ik0yLjY2OSAxMy42MDRMNi42IDEwLjQ2NWwuNDY4LjU4Ni0zLjkzMSAzLjEzOXpNMTUuMDUgOC42MWwtLjMuNjgtMy42My0xLjU4LjI5LS42OXptLS4zMSA1LjQ4bC0uNTIuNTQtMy4yMy0zLjA0LjUyLS41NXpNNS43ODggNi4xMTNsLjczNS0uMTQ5LjgwOCAzLjk3OS0uNzM1LjE0OXoiLz4mI3hhOwkJPHBhdGggZD0iTTExLjU2IDcuNTZsLTQuMSAzLjYtLjUtLjU2IDQuMS0zLjZ6Ii8+JiN4YTsJCTxwYXRoIGQ9Ik0xMS43NCA3LjNsLS4yNSAzLjk3LS43NC0uMDUuMjQtMy45N3oiLz4mI3hhOwkJPGNpcmNsZSBjeD0iNy4wMSIgY3k9IjEwLjgyIiByPSIxLjM2Ii8+JiN4YTsJCTxjaXJjbGUgY3g9IjExLjM3IiBjeT0iNy4zNiIgcj0iMS42MSIvPiYjeGE7CQk8Y2lyY2xlIGN4PSIxMS4zNiIgY3k9IjExLjU0IiByPSIuODQiLz4mI3hhOwkJPGNpcmNsZSBjeD0iNi4wNCIgY3k9IjUuNjciIHI9Ii45OSIvPiYjeGE7CTwvZz4mI3hhOwk8ZyBjbGFzcz0ic3QxIiBmaWxsPSIjNjY5ZGY2Ij4mI3hhOwkJPHBhdGggZD0iTTggNGgyVjBIOHptNCAwaDJWMGgtMnpNNCA0aDJWMEg0em00IDE0aDJ2LTRIOHoiLz4mI3hhOwkJPHBhdGggZD0iTTEyIDE4aDJ2LTRoLTJ6bS04IDBoMnYtNEg0em0tNC04aDRWOEgwem0wLTRoNFY0SDB6Ii8+JiN4YTsJCTxwYXRoIGQ9Ik0wIDE0aDR2LTJIMHptMTQtNGg0VjhoLTR6bTAtNGg0VjRoLTR6bTAgOGg0di0yaC00eiIvPiYjeGE7CQk8cGF0aCBkPSJNMTUgMkgzYTEgMSAwIDAgMC0xIDF2MTJhMSAxIDAgMCAwIDEgMWgxMmExIDEgMCAwIDAgMS0xVjNhMSAxIDAgMCAwLTEtMXptLTEgMTEuNDdhLjUzLjUzIDAgMCAxLS41My41M0g0LjUzYS41My41MyAwIDAgMS0uNTMtLjUzVjQuNTNBLjUzLjUzIDAgMCAxIDQuNTMgNGg4Ljk0YS41My41MyAwIDAgMSAuNTMuNTN6Ii8+JiN4YTsJPC9nPiYjeGE7PC9zdmc+;" parent="1" vertex="1">
          <mxGeometry x="911.87" y="494" width="40" height="40" as="geometry" />
        </mxCell>
        <mxCell id="V9JGxVGzX_ccKxI2M0wD-21" value="" style="verticalLabelPosition=bottom;html=1;verticalAlign=top;align=center;strokeColor=none;fillColor=#00BEF2;shape=mxgraph.azure.user;" parent="1" vertex="1">
          <mxGeometry x="910" y="540" width="43.75" height="40" as="geometry" />
        </mxCell>
        <mxCell id="V9JGxVGzX_ccKxI2M0wD-22" value="x 2 - 5" style="text;html=1;align=center;verticalAlign=middle;whiteSpace=wrap;rounded=0;strokeColor=none;fontSize=16;" parent="1" vertex="1">
          <mxGeometry x="963.75" y="499" width="80" height="30" as="geometry" />
        </mxCell>
        <mxCell id="V9JGxVGzX_ccKxI2M0wD-23" value="x 2" style="text;html=1;align=center;verticalAlign=middle;whiteSpace=wrap;rounded=0;strokeColor=none;fontSize=16;" parent="1" vertex="1">
          <mxGeometry x="963.75" y="550" width="80" height="30" as="geometry" />
        </mxCell>
        <mxCell id="V9JGxVGzX_ccKxI2M0wD-26" value="x 1" style="text;html=1;align=center;verticalAlign=middle;whiteSpace=wrap;rounded=0;strokeColor=none;fontSize=16;" parent="1" vertex="1">
          <mxGeometry x="698.13" y="515" width="80" height="30" as="geometry" />
        </mxCell>
        <mxCell id="V9JGxVGzX_ccKxI2M0wD-27" value="x 1" style="text;html=1;align=center;verticalAlign=middle;whiteSpace=wrap;rounded=0;strokeColor=none;fontSize=16;" parent="1" vertex="1">
          <mxGeometry x="470" y="515" width="80" height="30" as="geometry" />
        </mxCell>
        <mxCell id="V9JGxVGzX_ccKxI2M0wD-28" value="" style="verticalLabelPosition=bottom;html=1;verticalAlign=top;align=center;strokeColor=none;fillColor=#00BEF2;shape=mxgraph.azure.user;" parent="1" vertex="1">
          <mxGeometry x="236.25" y="660" width="43.75" height="40" as="geometry" />
        </mxCell>
        <mxCell id="V9JGxVGzX_ccKxI2M0wD-29" value="" style="editableCssRules=.*;html=1;shape=image;verticalLabelPosition=bottom;labelBackgroundColor=#ffffff;verticalAlign=top;aspect=fixed;imageAspect=0;image=data:image/svg+xml,PHN2ZyB4bWxucz0iaHR0cDovL3d3dy53My5vcmcvMjAwMC9zdmciIHhtbG5zOnY9Imh0dHBzOi8vdmVjdGEuaW8vbmFubyIgd2lkdGg9IjE4IiBoZWlnaHQ9IjE4IiB2aWV3Qm94PSIwIDAgMTggMTgiPiYjeGE7CTxzdHlsZSB0eXBlPSJ0ZXh0L2NzcyI+JiN4YTsJLnN0MHtmaWxsOiM0Mjg1ZjQ7fSYjeGE7CS5zdDF7ZmlsbDojNjY5ZGY2O30mI3hhOwk8L3N0eWxlPiYjeGE7CTxnIGNsYXNzPSJzdDAiIGZpbGw9IiM0Mjg1ZjQiPiYjeGE7CQk8cGF0aCBkPSJNMy40OCA2LjYyYS4zNy4zNyAwIDAgMS0uMzU4LS41MzMuMzcuMzcgMCAwIDEgLjMwOC0uMjA3bDIuMy0uMzJhLjM3LjM3IDAgMCAxIC40Mi4zMi4zOC4zOCAwIDAgMS0uMzIuNDNsLTIuMy4zMXoiLz4mI3hhOwkJPHBhdGggZD0iTTYuMjk5IDYuMjkybC4yMzMtLjcxMyA0LjE0NSAxLjM1Mi0uMjMzLjcxM3oiLz4mI3hhOwkJPHBhdGggZD0iTTYuMTggNi4xNmgtLjExYS4zNy4zNyAwIDAgMS0uMjQtLjQ2bC44My0yLjg0YS4zNy4zNyAwIDAgMSAuNDYtLjI0LjM2LjM2IDAgMCAxIC4yNi40NWwtLjg0IDIuODFhLjM4LjM4IDAgMCAxLS4zNi4yOHptNS4xMyAxLjRBLjM2LjM2IDAgMCAxIDExIDdsMS42Ny00LjIzYS4zOC4zOCAwIDAgMSAuNDctLjE4LjM4LjM4IDAgMCAxIC4yMy40NWwtMS42OCA0LjI0YS4zOS4zOSAwIDAgMS0uMzguMjh6Ii8+JiN4YTsJCTxwYXRoIGQ9Ik0yLjY2OSAxMy42MDRMNi42IDEwLjQ2NWwuNDY4LjU4Ni0zLjkzMSAzLjEzOXpNMTUuMDUgOC42MWwtLjMuNjgtMy42My0xLjU4LjI5LS42OXptLS4zMSA1LjQ4bC0uNTIuNTQtMy4yMy0zLjA0LjUyLS41NXpNNS43ODggNi4xMTNsLjczNS0uMTQ5LjgwOCAzLjk3OS0uNzM1LjE0OXoiLz4mI3hhOwkJPHBhdGggZD0iTTExLjU2IDcuNTZsLTQuMSAzLjYtLjUtLjU2IDQuMS0zLjZ6Ii8+JiN4YTsJCTxwYXRoIGQ9Ik0xMS43NCA3LjNsLS4yNSAzLjk3LS43NC0uMDUuMjQtMy45N3oiLz4mI3hhOwkJPGNpcmNsZSBjeD0iNy4wMSIgY3k9IjEwLjgyIiByPSIxLjM2Ii8+JiN4YTsJCTxjaXJjbGUgY3g9IjExLjM3IiBjeT0iNy4zNiIgcj0iMS42MSIvPiYjeGE7CQk8Y2lyY2xlIGN4PSIxMS4zNiIgY3k9IjExLjU0IiByPSIuODQiLz4mI3hhOwkJPGNpcmNsZSBjeD0iNi4wNCIgY3k9IjUuNjciIHI9Ii45OSIvPiYjeGE7CTwvZz4mI3hhOwk8ZyBjbGFzcz0ic3QxIiBmaWxsPSIjNjY5ZGY2Ij4mI3hhOwkJPHBhdGggZD0iTTggNGgyVjBIOHptNCAwaDJWMGgtMnpNNCA0aDJWMEg0em00IDE0aDJ2LTRIOHoiLz4mI3hhOwkJPHBhdGggZD0iTTEyIDE4aDJ2LTRoLTJ6bS04IDBoMnYtNEg0em0tNC04aDRWOEgwem0wLTRoNFY0SDB6Ii8+JiN4YTsJCTxwYXRoIGQ9Ik0wIDE0aDR2LTJIMHptMTQtNGg0VjhoLTR6bTAtNGg0VjRoLTR6bTAgOGg0di0yaC00eiIvPiYjeGE7CQk8cGF0aCBkPSJNMTUgMkgzYTEgMSAwIDAgMC0xIDF2MTJhMSAxIDAgMCAwIDEgMWgxMmExIDEgMCAwIDAgMS0xVjNhMSAxIDAgMCAwLTEtMXptLTEgMTEuNDdhLjUzLjUzIDAgMCAxLS41My41M0g0LjUzYS41My41MyAwIDAgMS0uNTMtLjUzVjQuNTNBLjUzLjUzIDAgMCAxIDQuNTMgNGg4Ljk0YS41My41MyAwIDAgMSAuNTMuNTN6Ii8+JiN4YTsJPC9nPiYjeGE7PC9zdmc+;" parent="1" vertex="1">
          <mxGeometry x="240" y="610" width="40" height="40" as="geometry" />
        </mxCell>
        <mxCell id="V9JGxVGzX_ccKxI2M0wD-30" value="Unit of optimization (ie digital twin &amp;amp; control policy) that can optimize control on the target environment." style="text;html=1;align=left;verticalAlign=middle;whiteSpace=wrap;rounded=0;" parent="1" vertex="1">
          <mxGeometry x="290" y="615" width="560" height="30" as="geometry" />
        </mxCell>
        <mxCell id="V9JGxVGzX_ccKxI2M0wD-31" value="Engineer, scientist, modeler. Unit(s) of work that can be spent sequentially (small team) or in parallel." style="text;html=1;align=left;verticalAlign=middle;whiteSpace=wrap;rounded=0;" parent="1" vertex="1">
          <mxGeometry x="288.13" y="665" width="541.87" height="30" as="geometry" />
        </mxCell>
      </root>
    </mxGraphModel>
  </diagram>
</mxfile>
